<?xml version="1.0" encoding="utf-8"?>
<!-- Generator: Adobe Illustrator 25.0.0, SVG Export Plug-In . SVG Version: 6.00 Build 0)  -->
<svg version="1.1" id="Layer_1" xmlns="http://www.w3.org/2000/svg" xmlns:xlink="http://www.w3.org/1999/xlink" x="0px" y="0px"
	 viewBox="0 0 2800.8 1705.1" style="enable-background:new 0 0 2800.8 1705.1;" xml:space="preserve">
<style type="text/css">
	.st0{fill:#CE435B;}
</style>
<g>
	<path class="st0" d="M927.9,1072.4l125.2-219.8L927.9,632.8c23.5-15.4,39-42.1,39-72.6c0-47.7-38.2-86.4-85.3-86.4
		c-30.2,0-56.7,15.9-71.9,39.9H521.5L328.4,852.6l193.1,338.8h288.3c15.1,24,41.7,39.9,71.9,39.9c47.1,0,85.3-38.7,85.3-86.4
		C967,1114.5,951.4,1087.8,927.9,1072.4z M1043.5,852.6l-122.8,215.5c-11.7-6.1-24.9-9.5-38.9-9.5c-14,0-27.3,3.5-38.9,9.5
		l-81.3-142.8c23.5-15.4,39.1-42.2,39.1-72.6c0-30.5-15.6-57.3-39.2-72.7l81.4-142.9c11.7,6.1,24.9,9.5,38.9,9.5
		c14,0,27.3-3.5,38.9-9.5L1043.5,852.6z M809.8,1098.5H580l96.7-168.8c11.6,6,24.8,9.4,38.7,9.4c14,0,27.2-3.4,38.8-9.5l81.4,142.8
		C825.2,1079.1,816.4,1088,809.8,1098.5z M743.1,852.7c0,16-12.5,29-27.8,29s-27.8-13-27.8-29c0-16,12.5-29,27.8-29
		S743.1,836.7,743.1,852.7z M881.7,531.2c15.3,0,27.8,13,27.8,29s-12.5,29-27.8,29s-27.8-13-27.8-29S866.4,531.2,881.7,531.2z
		 M835.5,632.8L754,775.7c-11.6-6-24.8-9.4-38.7-9.4c-14,0-27.2,3.4-38.8,9.5l-96.6-169.1h229.9C816.4,617.1,825.2,626,835.5,632.8z
		 M572.8,611.3L669.2,780c-10.3,6.7-19.1,15.6-25.7,26.1H461.8L572.8,611.3z M461.8,899h181.5c6.7,10.6,15.5,19.6,26,26.4
		l-96.4,168.5L461.8,899z M881.7,1173.9c-15.3,0-27.8-13-27.8-29c0-16,12.5-29,27.8-29s27.8,13,27.8,29
		C909.5,1160.9,897.1,1173.9,881.7,1173.9z"/>
	<g>
		<g>
			<path class="st0" d="M1356.5,959.2l-4.6,26.8h-107V794.9h103.5l4.6,26.8h-78.9v53h65v26.8h-65v57.9H1356.5z"/>
			<path class="st0" d="M1554.2,994.2l-134.9-137.9V986h-29.2V786.7l134.9,137.6V797.1l29.2-4.4V994.2z"/>
			<path class="st0" d="M1745.8,879v94.2c-17.5,10.1-41.2,16.4-64.7,16.4c-56,0-100.2-43.7-100.2-99.1s45.3-99.1,102.6-99.1
				c19.4,0,38.2,5.2,53.8,13.4l-4.6,28.7c-14.2-9-31.4-14.5-48.9-14.5c-40.9,0-72.6,31.4-72.6,71.5c0,40.1,30.8,71.5,70.7,71.5
				c13.6,0,25.4-2.2,36.3-6.8v-50.2h-49.7l4.6-25.9H1745.8z"/>
			<path class="st0" d="M1780.2,797.1l29.2-4.4V986h-29.2V797.1z"/>
			<path class="st0" d="M2010.6,994.2l-134.9-137.9V986h-29.2V786.7l134.9,137.6V797.1l29.2-4.4V994.2z"/>
			<path class="st0" d="M2159.1,959.2l-4.6,26.8h-107V794.9h103.5l4.6,26.8h-78.9v53h65v26.8h-65v57.9H2159.1z"/>
			<path class="st0" d="M2304.3,959.2l-4.6,26.8h-107V794.9h103.5l4.6,26.8h-78.9v53h65v26.8h-65v57.9H2304.3z"/>
			<path class="st0" d="M2424.7,986l-57.6-80v80h-29.2V794.9h45.9c42.3,0,68.5,25.4,68.5,59.8c0,28.7-18.8,50.2-48.3,56.5l56.5,74.8
				H2424.7z M2367.1,892.3h14.5c25.4,0,40.7-15,40.7-36.3c0-20.7-15.3-35.5-40.7-35.5h-14.5V892.3z"/>
		</g>
	</g>
	<g>
		<g>
			<path class="st0" d="M1278.8,695h-20.7c-3.5,0-8.6,0.3-12.7,0.5c-0.2-0.5-0.2-1.3-0.2-1.7c0-1.4,0.5-1.8,1.2-1.9
				c3.9-0.7,6.5-1.5,6.5-4.3v-50.6c0-2.6-1.8-3.5-6.5-4.3c-1-0.2-1.2-0.9-1.2-1.9c0-0.4,0-1.2,0.2-1.8c5.7,0.4,8.5,0.5,12.6,0.5
				h20.5c22.8,0,35,14.8,35,32.8C1313.4,678,1302.8,695,1278.8,695z M1271.8,634.4h-6.3v51.9c0,2.7,1.2,3.6,8.4,3.6
				c17.6,0,25.6-10,25.6-25.9C1299.5,643,1289.7,634.4,1271.8,634.4z"/>
			<path class="st0" d="M1359.1,685c0.7,0,1.6,0.5,2.5,2.2c-5.3,6.2-11.8,9-21.1,9c-10.4,0-21.3-6.7-21.3-21.6
				c0-14.8,12.9-24.1,22.5-24.1c13,0,19.8,8.2,19.8,21.1c0,0.5-0.2,0.7-0.7,0.7l-29,1.2c0,10.5,4.7,16.3,14.1,16.3
				c4.1,0,8.4-1.4,11.5-4C1357.9,685.3,1358.5,685,1359.1,685z M1331.5,668.9l15.8-0.7c1.1-0.1,1.5-0.4,1.5-1.3c0-5.2-2.6-12-8.6-12
				C1334.9,654.9,1331.5,659.3,1331.5,668.9z"/>
			<path class="st0" d="M1408.3,685c0.7,0,1.6,0.5,2.5,2.2c-5.3,6.2-11.8,9-21.1,9c-10.4,0-21.3-6.7-21.3-21.6
				c0-14.8,12.9-24.1,22.5-24.1c13,0,19.8,8.2,19.8,21.1c0,0.5-0.2,0.7-0.7,0.7l-29,1.2c0,10.5,4.7,16.3,14.1,16.3
				c4.1,0,8.4-1.4,11.5-4C1407.2,685.3,1407.7,685,1408.3,685z M1380.8,668.9l15.8-0.7c1.1-0.1,1.5-0.4,1.5-1.3c0-5.2-2.6-12-8.6-12
				C1384.2,654.9,1380.8,659.3,1380.8,668.9z"/>
			<path class="st0" d="M1420.1,660.7c0-3.2-0.3-4.6-4.9-5.2c-0.8-0.2-1.4-0.5-1.4-1.4c0-0.5,0-1.3,0.2-1.8c1.7,0,6.1-0.2,8.8-0.6
				c3-0.4,6.4-1.2,7.4-1.2c1.2,0,1.4,0.6,1.4,1.5v6.9c3.8-5.1,9-8.4,15-8.4c10.5,0,18.6,7.9,18.6,21.7c0,15.1-12.9,24-22.5,24
				c-3.8,0-6.9-0.6-11-2V711c0,3.2,0.6,4.3,9.5,5.5c0.8,0.1,1.3,0.6,1.3,1.5c0,0.8,0,1.3-0.2,1.8c-3.5-0.2-9.4-0.5-14.5-0.5
				c-4.4,0-9.2,0.2-12.8,0.5c-0.1-0.5-0.2-1.3-0.2-1.9c0-0.9,0.6-1.2,1.1-1.3c3.7-0.9,4.4-1.4,4.4-3.4V660.7z M1431.5,686.9
				c3,3.1,6.5,4.8,10.5,4.8c6.9,0,10.3-6.7,10.3-17.1c0-10.3-3.2-18.5-10.8-18.5c-5.1,0-10,6.9-10,13V686.9z"/>
			<path class="st0" d="M1514.6,686.4c0,2.8,3.4,3.5,11.7,3.5h3.8c6.9,0,9.5-2.9,12.5-10.8c0.2-0.5,0.7-0.8,1.5-0.8
				c0.7,0,1.7,0.5,2.6,0.9c-1,4.2-2,9.6-2.6,14.4c-0.1,1.6-1,1.8-1.8,1.8c-2,0-8.5-0.5-12-0.5h-22.9c-3.9,0-9.5,0.3-13.5,0.5
				c-0.2-0.5-0.2-1.6-0.2-2c0-1,0.3-1.5,1-1.6c5.1-0.9,7.2-1.7,7.2-4.3v-50.6c0-2.6-0.6-3.5-6.3-4.3c-0.7-0.2-1-0.9-1-1.7
				c0-0.4,0-1.4,0.2-2c4.3,0.3,9.6,0.5,13.3,0.5c3.7,0,10.2-0.2,14.5-0.5c0.1,0.6,0.2,1.6,0.2,2c0,0.8-0.4,1.5-1,1.7
				c-5.8,0.8-7.3,1.9-7.3,4.5V686.4z"/>
			<path class="st0" d="M1590.6,685c0.7,0,1.6,0.5,2.5,2.2c-5.3,6.2-11.8,9-21.1,9c-10.4,0-21.3-6.7-21.3-21.6
				c0-14.8,12.9-24.1,22.5-24.1c13,0,19.8,8.2,19.8,21.1c0,0.5-0.2,0.7-0.7,0.7l-29,1.2c0,10.5,4.7,16.3,14.1,16.3
				c4.1,0,8.4-1.4,11.5-4C1589.5,685.3,1590,685,1590.6,685z M1563,668.9l15.8-0.7c1.1-0.1,1.5-0.4,1.5-1.3c0-5.2-2.6-12-8.6-12
				C1566.4,654.9,1563,659.3,1563,668.9z"/>
			<path class="st0" d="M1645.2,694.4c-1.7,1.2-4.6,1.8-7.3,1.8c-6,0-9.3-3.4-9.8-7.4c-2.7,5.4-7.3,7.4-13.3,7.4
				c-5.7,0-14.6-1.4-14.6-10.3c0-10,11.3-13.5,19.5-15.4c1.7-0.4,3.8-0.9,4.9-1.2c1.4-0.4,1.7-0.7,1.7-3.7c0-6.8-1.8-10.7-6.7-10.7
				c-3.9,0-5.1,2.3-6.6,7.6c-0.4,1.4-2.5,2-5.5,2.8c-1.6,0.4-3.4,0.7-4.7,0.7c-0.8,0-1-0.5-1-2.2c0-6.8,11-13.3,19.3-13.3
				c9.9,0,16.6,3,16.6,14.5v17.8c0,4.7,0.2,6.6,0.7,7.6c0.6,1.2,1.5,1.8,2.8,1.8c1.1,0,1.8-0.3,2.4-0.3
				C1644.8,691.9,1645.2,692.7,1645.2,694.4z M1626.3,673l-2.2,0.4c-6.3,1.1-11,3.8-11,10.8c0,5.3,1.7,7.1,4.9,7.1
				c5.1,0,8.3-4,8.3-10.7V673z"/>
			<path class="st0" d="M1687.1,655.9c0,1.8-1.1,2.6-7.7,5.6c-2.1-2.1-3.9-2.7-5.7-2.7c-3.1,0-6.5,1.9-6.5,10v18.8
				c0,2.6,1.7,3.6,8,4.7c0.6,0.1,1.1,0.4,1.1,1.3c0,0.8,0,1.4-0.2,1.9c-3.4-0.2-10.8-0.5-15.2-0.5c-5.2,0-8.5,0.3-11.7,0.5
				c-0.2-0.5-0.2-1.1-0.2-1.9c0-0.9,0.5-1.2,1.1-1.3c4.2-0.8,5.7-1.5,5.7-3.5v-27.2c0-3-0.4-5.1-5.7-5.7c-0.8-0.1-1.4-0.5-1.4-1.5
				c0-0.4,0-1.2,0.2-1.6c1.7,0,6.4-0.2,9.1-0.6c2.9-0.4,6.7-1.2,7.8-1.2c1.1,0,1.4,0.5,1.4,1.5v5.5c4.6-5.2,8.7-7.4,13.9-7.4
				C1685.1,650.6,1687.1,652.9,1687.1,655.9z"/>
			<path class="st0" d="M1737.6,688.8c0,1.9,1.4,2.7,5.7,3.4c0.5,0.1,1.1,0.4,1.1,1.3c0,0.8-0.1,1.4-0.2,1.9
				c-3.4-0.2-6.6-0.5-11.8-0.5c-4.3,0-8,0.2-11.5,0.5c-0.2-0.5-0.2-1.1-0.2-1.9c0-0.9,0.5-1.2,1.1-1.3c3.5-0.7,4.4-1.4,4.4-3.4V669
				c0-7.9-1.8-10.5-6.2-10.5c-6.1,0-11,4.1-11,12.2v18.1c0,2,0.9,2.7,4.4,3.4c0.6,0.1,1.1,0.4,1.1,1.3c0,0.8,0,1.4-0.2,1.9
				c-3.5-0.3-7.2-0.5-11.5-0.5c-5.3,0-8.5,0.3-11.8,0.5c-0.1-0.5-0.2-1.1-0.2-1.9c0-0.9,0.6-1.2,1.1-1.3c4.2-0.8,5.7-1.5,5.7-3.5
				v-26.7c0-4-1.1-6.2-5.8-6.6c-0.8-0.2-1.3-0.7-1.3-1.6c0-0.4,0-1.1,0.2-1.6c1.7,0,6.5-0.2,9.3-0.5c3.3-0.4,6.9-1.3,8-1.3
				c1.2,0,1.6,0.6,1.6,1.5c0,1.4-0.6,3.7-0.6,8c4.3-5.6,9.7-9.5,15.4-9.5c8.2,0,13.2,4.6,13.2,13.7V688.8z"/>
			<path class="st0" d="M1749.1,695.5c-0.1-0.5-0.2-1.3-0.2-1.9c0-0.9,0.6-1.2,1.1-1.3c4.3-0.8,5.7-1.5,5.7-3.5v-26.7
				c0-4-0.8-6.2-5.8-6.6c-0.8-0.1-1.3-0.7-1.3-1.6c0-0.4,0-1.1,0.2-1.6c1.7,0,6.5-0.2,9.3-0.5c3.3-0.4,6.9-1.3,8-1.3
				c1.2,0,1.6,0.6,1.6,1.5c0,1.4-0.6,3.7-0.6,8v28.8c0,2,1.6,2.7,5.7,3.5c0.6,0.1,1.1,0.4,1.1,1.3c0,0.6,0,1.4-0.2,1.9
				c-3.3-0.3-7.1-0.5-12.3-0.5C1756.1,695,1752.5,695.2,1749.1,695.5z M1761.2,628.3c4.2,0,7.3,3.1,7.3,7.4c0,4.2-3,7.4-7.3,7.4
				c-4.1,0-7.3-3.1-7.3-7.4C1753.9,631.5,1757.1,628.3,1761.2,628.3z"/>
			<path class="st0" d="M1827.2,688.8c0,1.9,1.4,2.7,5.7,3.4c0.5,0.1,1.1,0.4,1.1,1.3c0,0.8-0.1,1.4-0.2,1.9
				c-3.4-0.2-6.6-0.5-11.8-0.5c-4.3,0-8,0.2-11.5,0.5c-0.2-0.5-0.2-1.1-0.2-1.9c0-0.9,0.5-1.2,1.1-1.3c3.5-0.7,4.4-1.4,4.4-3.4V669
				c0-7.9-1.8-10.5-6.2-10.5c-6.1,0-11,4.1-11,12.2v18.1c0,2,0.9,2.7,4.4,3.4c0.6,0.1,1.1,0.4,1.1,1.3c0,0.8,0,1.4-0.2,1.9
				c-3.5-0.3-7.2-0.5-11.5-0.5c-5.3,0-8.5,0.3-11.8,0.5c-0.1-0.5-0.2-1.1-0.2-1.9c0-0.9,0.6-1.2,1.1-1.3c4.2-0.8,5.7-1.5,5.7-3.5
				v-26.7c0-4-1.1-6.2-5.8-6.6c-0.8-0.2-1.3-0.7-1.3-1.6c0-0.4,0-1.1,0.2-1.6c1.7,0,6.5-0.2,9.3-0.5c3.3-0.4,6.9-1.3,8-1.3
				c1.2,0,1.6,0.6,1.6,1.5c0,1.4-0.6,3.7-0.6,8c4.3-5.6,9.7-9.5,15.4-9.5c8.2,0,13.2,4.6,13.2,13.7V688.8z"/>
			<path class="st0" d="M1839.7,686c0-4.3,2-6.5,6.3-9.1c-3.5-2.2-6.7-5.7-6.7-11.3c0-8.7,8.3-15.2,17.9-15.2
				c6.6,0,11.2,2.4,13.9,4.4l9.9-4.8c1.6,1.1,2.5,3.1,2.5,4.7c0,1.3-0.5,2.3-1.9,2.3c-0.5,0-1.8-0.1-2.5-0.1c-1.5,0-2.8,0.2-5.1,0.8
				c1.7,2.2,2.4,4.6,2.4,7.7c0,8.2-6.8,14.2-19.3,14.2c-2.8,0-5.5-0.3-7.7-1.1c-2.7,1.4-3.6,2.9-3.6,4c0,2,1.5,3.3,11.5,3.3
				c13.5,0,23.1,4.4,23.1,15.2c0,9.7-7.8,18.1-23.4,18.1c-12.1,0-20.9-3.7-20.9-14.4c0-5.3,3.5-9.1,7.7-11.5
				C1841.2,691.8,1839.7,689,1839.7,686z M1845,702.1c0,6.1,3.9,12.1,14.2,12.1c8.3,0,12-4.5,12-10c0-4-3.8-7.2-13.7-7.2
				c-3.5,0-8.1-0.8-10.7-1.8C1845.4,697,1845,699.4,1845,702.1z M1865,666.8c0-5.9-1-11.9-8.4-11.9c-3.6,0-6.4,3.2-6.4,8.3
				c0,6.1,1,12.1,7.9,12.1C1862.1,675.3,1865,672.7,1865,666.8z"/>
			<path class="st0" d="M1915.7,656.7h-6.1v-2.6c0-2.8,6.1,0,6.1-4.8V646c0-13.8,9.4-21.7,19.3-21.7c10.1,0,15.6,3.8,15.6,8.4
				c0,2.2-7.2,4.1-8.5,4.1c-1.2,0-1.8-0.3-2.2-1.6c-1.1-3.5-2.8-6.6-6.8-6.6c-4.2,0-6,2.8-6,10.9v12.1h11.9c0,3.7-0.2,5.1-2,5.1
				h-9.9v30c0,3.2,0.6,4.3,9.5,5.5c0.7,0.1,1.3,0.5,1.3,1.4c0,0.5-0.1,1.6-0.2,2.1c-3.3-0.3-9.4-0.7-14.6-0.7
				c-4.6,0-9.2,0.2-12.7,0.5c-0.1-0.5-0.2-1.4-0.2-1.9c0-0.9,0.4-1.2,1.1-1.3c3.7-0.8,4.4-1.4,4.4-3.4V656.7z"/>
			<path class="st0" d="M1963.3,650.4c14.2,0,23.6,9.8,23.6,22.9c0,13.1-10,22.8-23.7,22.8c-14.3,0-23.5-9.7-23.5-22.8
				C1939.7,660.2,1949.5,650.4,1963.3,650.4z M1964.3,691.8c7.1,0,9.9-6.1,9.9-16.4c0-12.2-4.4-20.5-11.9-20.5
				c-7.1,0-9.9,6.3-9.9,16.5C1952.4,683.7,1956.7,691.8,1964.3,691.8z"/>
			<path class="st0" d="M2030.3,655.9c0,1.8-1.1,2.6-7.7,5.6c-2.1-2.1-3.9-2.7-5.7-2.7c-3.1,0-6.5,1.9-6.5,10v18.8
				c0,2.6,1.7,3.6,8,4.7c0.6,0.1,1.1,0.4,1.1,1.3c0,0.8,0,1.4-0.2,1.9c-3.4-0.2-10.8-0.5-15.2-0.5c-5.2,0-8.5,0.3-11.7,0.5
				c-0.2-0.5-0.2-1.1-0.2-1.9c0-0.9,0.5-1.2,1.1-1.3c4.2-0.8,5.7-1.5,5.7-3.5v-27.2c0-3-0.4-5.1-5.7-5.7c-0.8-0.1-1.4-0.5-1.4-1.5
				c0-0.4,0-1.2,0.2-1.6c1.7,0,6.4-0.2,9.1-0.6c2.9-0.4,6.7-1.2,7.8-1.2c1.1,0,1.4,0.5,1.4,1.5v5.5c4.6-5.2,8.7-7.4,13.9-7.4
				C2028.3,650.6,2030.3,652.9,2030.3,655.9z"/>
		</g>
	</g>
	<g>
		<path class="st0" d="M1335.5,1200.4l-2,9.9h-83.2l46.1-52.7c18.2-20.6,28.3-33.5,28.3-49.1c0-18.6-13.9-31.9-31.7-31.9
			c-17.8,0-31.5,13.5-31.5,31.3c0,6.1,1.6,11.3,4,16.8l-10.3,2c-2.8-5.9-4.2-12.1-4.2-18.8c0-23.2,18.2-41.2,42-41.2
			c23.6,0,42.2,17.6,42.2,41.8c0,16.8-9.3,30.7-30.5,54.7l-32.7,37.2H1335.5z"/>
		<path class="st0" d="M1355.3,1139.6c0-39.4,18.4-72.5,51.5-72.5c33.1,0,51.5,33.1,51.5,72.5s-18.4,72.5-51.5,72.5
			C1373.7,1212.1,1355.3,1179,1355.3,1139.6z M1447.6,1139.6c0-33.5-13.5-62.8-40.8-62.8s-40.8,29.3-40.8,62.8s13.5,62.8,40.8,62.8
			S1447.6,1173.1,1447.6,1139.6z"/>
		<path class="st0" d="M1561.7,1200.4l-2,9.9h-83.2l46.1-52.7c18.2-20.6,28.3-33.5,28.3-49.1c0-18.6-13.9-31.9-31.7-31.9
			c-17.8,0-31.5,13.5-31.5,31.3c0,6.1,1.6,11.3,4,16.8l-10.3,2c-2.8-5.9-4.2-12.1-4.2-18.8c0-23.2,18.2-41.2,42-41.2
			c23.6,0,42.2,17.6,42.2,41.8c0,16.8-9.3,30.7-30.5,54.7l-32.7,37.2H1561.7z"/>
		<path class="st0" d="M1623.2,1065.5v144.8h-10.3v-126l-30.9,21.4l-2.2-10.5L1623.2,1065.5z"/>
		<path class="st0" d="M1792,1115.6l-7.7,43.6h24v9.1h-25.5l-7.5,42h-10.1l7.5-42h-41.2l-7.5,42h-10.1l7.5-42h-23.8v-9.1h25.2
			l7.7-43.6H1707v-9.1h25.2l6.7-37.6h10.1l-6.7,37.6h41.2l6.7-37.6h10.1l-6.7,37.6h24v9.1H1792z M1781.9,1115.6h-41.2l-7.7,43.6
			h41.2L1781.9,1115.6z"/>
		<path class="st0" d="M1877.4,1065.5v144.8h-10.3v-126l-30.9,21.4l-2.2-10.5L1877.4,1065.5z"/>
	</g>
	<g>
		<g>
			<path class="st0" d="M1246,586.4c-1.1-0.9-1.7-1.9-1.7-2.9c0-0.7,0.3-1.4,0.8-1.9c3.6-3.5,6.2-7.1,7.7-10.7
				c1.5-3.6,2.3-7.8,2.3-12.3v-54.3c0-1.3-0.6-1.8-1-2c-0.6-0.4-2-0.9-5.2-1.3c-0.6-0.1-1.9-0.6-1.9-2.7c0-0.5,0.1-1.1,0.2-1.8
				l0.2-0.9c0,0,5.3,0.3,7.6,0.4c2.3,0.1,4.3,0.2,5.8,0.2c1.6,0,3.6-0.1,5.8-0.2c2.3-0.1,4.4-0.2,6.3-0.4l0.9-0.1l0.2,0.9
				c0.2,0.8,0.2,1.4,0.2,1.8c0,2.3-1.4,2.7-2,2.7c-2.9,0.4-4.1,1-4.7,1.3c-0.4,0.3-0.9,0.7-0.9,2.1v44.1c0,4.8-0.2,8.9-0.6,12.3
				c-0.4,3.5-1.3,6.7-2.7,9.5c-1.4,2.8-3.4,5.6-6,8.1c-2.6,2.5-6,5.2-10.1,8.1l-0.6,0.4L1246,586.4z"/>
		</g>
		<g>
			<path class="st0" d="M1296.2,563.9c-0.2-0.8-0.2-1.4-0.2-1.8c0-2,1.4-2.5,1.9-2.6c2.4-0.6,4.1-1.1,5.1-1.6
				c0.7-0.4,1.1-0.9,1.1-1.7v-51.8c0-1.3-0.6-1.7-1-2c-0.6-0.3-2.1-0.9-5.2-1.4c-0.7-0.1-1.3-0.5-1.6-1.2c-0.2-0.5-0.4-1-0.4-1.6
				c0-0.5,0.1-1.1,0.2-1.8l0.2-0.9l0.9,0.1c1.4,0.1,2.6,0.2,3.7,0.3c1.1,0,2.1,0.1,3,0.1c0.9,0.1,1.8,0.1,2.7,0.1h23.8
				c5.8,0,11,0.9,15.4,2.7c4.4,1.8,8.1,4.3,11.1,7.4c2.9,3.1,5.2,6.7,6.6,10.8c1.5,4.1,2.2,8.5,2.2,13.2c0,4.1-0.7,8.2-2.1,12.2
				c-1.4,4-3.6,7.7-6.5,11c-2.9,3.3-6.6,5.9-11,7.9c-4.4,2-9.6,3-15.5,3h-20.9c-1.8,0-3.7,0.1-6,0.1c-2.2,0.1-7.4,0.4-7.4,0.4
				L1296.2,563.9z M1315.7,555.4c0,0.5,0.1,0.8,0.3,1.1c0.2,0.3,0.6,0.6,1.2,0.8c0.7,0.2,1.8,0.4,3.1,0.6c1.4,0.1,3.2,0.2,5.3,0.2
				c5.1,0,9.4-0.6,12.9-1.8c3.4-1.2,6.2-2.9,8.4-5.1c2.1-2.2,3.7-4.9,4.7-8.1c1-3.2,1.5-6.9,1.5-10.9c0-10.1-2.5-17.7-7.5-22.5
				c-5-4.8-12.4-7.3-22-7.3h-7.8V555.4z"/>
		</g>
		<g>
			<path class="st0" d="M1381.4,563.9c-0.2-0.8-0.2-1.4-0.2-1.8c0-2,1.3-2.5,1.8-2.6c3.3-0.6,4.8-1.1,5.4-1.5c0.7-0.4,1-1,1-1.8
				v-51.9c0-1.3-0.5-1.8-0.9-2c-0.6-0.3-1.9-0.9-5.1-1.3c-0.7-0.1-1.2-0.5-1.5-1.1c-0.3-0.5-0.4-1-0.4-1.6c0-0.5,0.1-1.2,0.2-1.9
				l0.2-0.9c0,0,5.4,0.3,7.7,0.4c2.2,0.1,4.1,0.2,5.7,0.2c2.3,0,4.7-0.1,7.3-0.2c2.6-0.1,4.9-0.2,6.9-0.4l0.9-0.1l0.2,0.9
				c0.2,0.8,0.2,1.4,0.2,1.8c0,2.4-1.4,2.8-2,2.8c-2.8,0.3-4.9,0.8-6.1,1.4c-1,0.5-1.5,1.3-1.5,2.6v50.9c0,0.8,0.3,1.2,0.9,1.5
				c0.9,0.4,2.1,0.6,3.7,0.6h11.1c1.8,0,3.4-0.2,4.8-0.7c1.3-0.5,2.4-1.1,3.3-2c0.9-0.9,1.8-2,2.5-3.3c0.8-1.3,1.4-2.9,2-4.6
				c0.4-1,1.1-1.5,2.2-1.5c0.5,0,1,0.1,1.5,0.3l1.9,0.9l-0.2,0.8c-0.5,2-0.9,4.2-1.4,6.4c-0.4,2.3-0.8,4.8-1.2,7.6
				c-0.1,1.1-0.5,1.8-1.1,2.2c-0.5,0.3-1.1,0.4-1.7,0.4c-1.2,0-2.7-0.1-4.4-0.3c-1.7-0.2-3.2-0.3-4.4-0.3h-25.5
				c-1.5,0-3.5,0.1-5.9,0.1c-2.4,0.1-7.7,0.4-7.7,0.4L1381.4,563.9z"/>
		</g>
		<g>
			<path class="st0" d="M1446.2,564c-0.2-0.6-0.2-1.3-0.2-1.9c0-0.6,0.1-1.2,0.4-1.7c0.2-0.4,0.7-1,1.8-1.2c2-0.3,3.5-0.7,4.4-1.2
				c0.8-0.4,1.4-1,1.8-1.9l24.5-59c0.8-1.9,2-2.3,2.9-2.3c0.3,0,0.8,0.1,1.5,0.2l0.5,0.1l24.8,61.3c0.3,0.7,1,1.2,2.2,1.7
				c1.4,0.5,2.7,0.9,4,1.1c0.7,0.2,1.2,0.5,1.5,0.8c0.4,0.5,0.7,1.1,0.7,2c0,0.4-0.1,1.1-0.2,1.8l-0.2,0.9c0,0-5.2-0.3-7.3-0.4
				c-2.1-0.1-4-0.1-5.9-0.1c-1.9,0-4,0.1-6.5,0.1c-2.4,0.1-4.6,0.2-6.6,0.4l-0.9,0.1l-0.2-0.9c-0.2-0.8-0.2-1.4-0.2-1.8
				c0-0.9,0.2-1.5,0.6-2l0.3-0.3l1.1-0.4c1.5-0.3,2.9-0.7,3.9-1.1c1-0.4,1-0.9,1-1.1c0-0.1,0-0.5-0.3-1.1l-6.2-16.2h-21.3l-6.3,15.8
				c-0.4,0.9-0.4,1.4-0.4,1.7c0,0.1,0.2,1.3,5.3,2.1c1,0.1,1.5,0.7,1.7,1.1c0.3,0.5,0.4,1,0.4,1.6c0,0.4-0.1,1.1-0.2,1.8l-0.2,0.9
				c0,0-4.6-0.3-6.7-0.4c-2-0.1-4-0.1-6-0.1c-1.3,0-2.7,0-4.1,0.1c-1.4,0.1-2.9,0.2-4.4,0.4l-0.9,0.1L1446.2,564z M1487.1,533.8
				l-8-21.2l-8.4,21.2H1487.1z"/>
		</g>
	</g>
	<rect x="231" y="1346.3" class="st0" width="2338.7" height="6.3"/>
	<rect x="328.4" y="1312.4" class="st0" width="2144" height="6.3"/>
	<rect x="231" y="352.6" class="st0" width="2338.7" height="6.3"/>
	<rect x="328.4" y="386.5" class="st0" width="2144" height="6.3"/>
	<rect x="1135.9" y="494.8" class="st0" width="6.3" height="715.5"/>
</g>
</svg>
